<?xml version="1.0" encoding="UTF-8"?>
<svg version="1.1" viewBox="0 0 1600 880" width="1280" height="1280" xmlns="http://www.w3.org/2000/svg">
<path transform="translate(0)" d="m0 0h1600v880h-1600z"/>
<path transform="translate(496,49)" d="m0 0 2 4 4 19 3 23 2 28v23l-2 26-4 25-6 23-7 19-10 21-2 3 196 1-6 7-109 109-149 1-33 1-28 2-25 4-15 5-11 6-12 11-10 13-4 4-5-14-4-17-2-14v-32l3-18 6-21 9-20 10-16 11-14 12-13 8-7 13-11 21-14 16-10 17-12 16-12 11-9 10-9 8-7 16-16 9-11 11-14 12-19 8-16 7-19z" fill="#F5A20B"/>
<path transform="translate(270,458)" d="m0 0h203l13 2 13 5 9 8 5 8 3 9 1 5v33l-3 11-4 7-5 5 7 8 4 10 1 5v33l-3 12-6 10-9 8-8 4-15 3h-207l-7-3-3-5v-170l3-5z" fill="#FDFDFD"/>
<path transform="translate(685,458)" d="m0 0 13 1 12 5 9 7 9 9 16 23 16 24 23 34 22 33 12 17 16 24 5 7v2h-50l-8-11-16-24h-152l-15 23-8 12h-51l7-11 16-24 13-19 46-68 22-33 10-13 7-7 11-7 9-3z" fill="#FDFDFD"/>
<path transform="translate(1093,458)" d="m0 0h23l7 2 4 5v65h170v-67l5-4 5-1h23l8 3 3 5v170l-3 5-6 3h-26l-6-3-3-4v-64h-170v64l-4 5-5 2h-26l-6-3-3-5-1-82v-87l2-5 4-3z" fill="#FDFDFD"/>
<path transform="translate(804,458)" d="m0 0h237l8 3 3 5v27l-3 5-4 3h-100v134l-4 7-6 2h-25l-5-2-4-4-1-3v-134h-99l-6-4-2-8v-19l2-7 5-4z" fill="#FDFDFD"/>
<path transform="translate(496,103)" d="m0 0h1l1 6v27l-3 27-6 25-7 21-13 27-11 17-10 13-12 14-9 9-22 18-20 13-15 9-27 16-18 12-13 10-13 11-13 13-11 14h-1v-7l5-17 12-25 10-15 10-13 11-12 9-10 10-9 13-11 20-15 11-9 10-9 8-7 17-17 7-8 12-14 12-16 12-17 14-24 12-25 6-18z"/>
<path transform="translate(420,709)" d="m0 0h18l11 4 9 6 7 7 7 12 3 10 1 14-3 14-6 12-7 8-10 7-10 4-5 1h-12l-9-2-13-7-8-8-8-14-3-13v-12l3-12 5-10 8-10 12-8z" fill="#F5A20B"/>
<path transform="translate(1015,709)" d="m0 0h19l11 4 10 7 8 9 5 10 3 10v19l-4 12-6 10-10 10-12 6-9 2h-11l-12-3-11-7-8-8-6-10-3-9-1-5v-16l4-13 6-10 7-8 11-7z" fill="#F5A20B"/>
<path transform="translate(706,264)" d="m0 0h52l-6 7-109 109h-52l6-7z" fill="#F5A20B"/>
<path transform="translate(303,501)" d="m0 0h170v13l-1 16h-168l-1-1z"/>
<path transform="translate(767,274)" d="m0 0 7 6 99 99v1h-52l-79-79 2-4z" fill="#F5A20B"/>
<path transform="translate(303,573)" d="m0 0h170v13l-1 15h-169z"/>
<path transform="translate(1126,709)" d="m0 0h12l10 12 22 28 12 15 11 14 1-69h15v98h-13l-14-17-11-14-13-16-11-14-5-6-1 67h-15z" fill="#F5A20B"/>
<path transform="translate(422,723)" d="m0 0h14l9 4 6 5 6 10 3 11v10l-3 12-6 9-8 7-9 3h-10l-9-3-8-6-6-10-3-9v-15l3-10 6-9 7-6z"/>
<path transform="translate(1017,723)" d="m0 0h15l10 5 7 7 5 10 2 11-1 11-4 11-6 8-9 6-6 2h-10l-9-3-9-7-6-10-2-7v-18l5-12 7-8 8-5z"/>
<path transform="translate(288,709)" d="m0 0h20l12 4 10 6-2 6-4 7-14-7-10-2-12 1-6 3-3 6 1 9 8 5 27 8 10 5 7 8 2 5v14l-3 8-7 7-8 4-8 2h-19l-13-3-14-7-4-4 7-12 15 8 11 3h15l8-3 3-6-1-8-5-4-9-4-24-7-10-6-5-8-1-4v-10l3-9 8-9 10-5z" fill="#F5A20B"/>
<path transform="translate(1292,709)" d="m0 0h20l12 4 9 5 1 4-6 10-14-7-10-2-12 1-6 3-3 6 1 8 4 4 11 4 20 6 10 5 5 5 4 8v15l-4 8-5 5-6 4-11 3h-19l-15-4-12-6-3-2 1-5 5-9 11 6 11 4 4 1h15l8-3 3-5v-7l-5-6-14-5-20-6-9-6-5-6-2-7v-8l3-10 8-9 8-4z" fill="#F5A20B"/>
<path transform="translate(642,709)" d="m0 0h15l1 58 3 12 6 9 7 4 4 1h11l8-3 6-5 5-11 1-5 1-60h16v57l-3 15-6 12-8 8-10 5-9 2h-13l-12-3-10-7-6-7-5-11-2-10z" fill="#F5A20B"/>
<path transform="translate(688,496)" d="m0 0 4 5 42 62v2h-92l4-7 25-37z"/>
<path transform="translate(776,709)" d="m0 0h80v14h-32v84 h-16v-84h-32z" fill="#F5A20B"/>
<path transform="translate(530,709)" d="m0 0h16v84h51l1 1v13h-68z" fill="#F5A20B"/>
<path transform="translate(908,709)" d="m0 0h15l1 1v97h-16z" fill="#F5A20B"/>
<path transform="translate(717,343)" d="m0 0h35v35h-35z" fill="#F5A20B"/>
</svg>
